<svg xmlns="http://www.w3.org/2000/svg" viewBox="0 0 900 520">
      <rect width="900" height="520" fill="#d8ece9"/>
      
          <rect width="900" height="520" fill="#f1e5cf"/>
          <path d="M0 390 C220 350 310 410 520 377S780 358 900 391V520H0Z" fill="#d8c299"/>
          <rect x="365" y="170" width="190" height="185" rx="14" fill="#fffaf2" stroke="#1d4d3f" stroke-width="8"/>
          <path d="M555 210h55c70 0 70 100 0 100h-55" fill="none" stroke="#1d4d3f" stroke-width="8"/>
          <path d="M400 140c-25-34 18-45 0-78M460 140c-25-34 18-45 0-78M520 140c-25-34 18-45 0-78" fill="none" stroke="#d0a34f" stroke-width="8" stroke-linecap="round"/>
        
      <rect x="34" y="34" width="420" height="102" rx="14" fill="#103d32" opacity=".94"/>
      <text x="58" y="78" fill="#f7f1e5" font-family="Georgia,serif" font-size="32" font-weight="700">CAFÉ 8.98</text>
      <text x="58" y="110" fill="#d0a34f" font-family="Arial,sans-serif" font-size="16" letter-spacing="2">AO NANG · BRUNCH</text>
    </svg>